<svg width="142" height="19" viewBox="0 0 142 19" fill="none" xmlns="http://www.w3.org/2000/svg">
<g clip-path="url(#clip0_2312_21941)">
<path d="M93.1538 16.5425C93.0936 16.5291 93.0335 16.5224 92.98 16.5425C92.6726 16.6494 92.3718 16.5425 92.0977 16.489C91.3625 16.3487 90.634 16.1414 89.9121 15.9209C88.9897 15.6335 88.1475 15.1656 87.2853 14.6442C87.4992 14.5239 87.6663 14.4103 87.8534 14.3368C88.2812 14.163 88.709 14.0026 89.1501 13.8555C89.2771 13.8154 89.3974 13.7954 89.4108 13.6417C89.4242 13.4879 89.4108 13.3476 89.2303 13.2674C88.8226 13.0802 88.4349 12.8596 88.0272 12.6925C87.693 12.5522 87.6864 12.5789 87.4791 12.8864C87.2452 13.2339 87.0046 13.5882 86.764 13.9358C86.6236 14.1363 86.5233 14.1563 86.3629 14.016C85.7614 13.4679 85.22 12.8663 84.8791 12.1177C84.839 12.0308 84.8323 11.9239 84.7989 11.8036C84.9058 11.8036 84.9593 11.8036 85.0128 11.8036C86.0555 11.8103 87.0982 11.8303 88.1409 11.8303C89.3774 11.8303 90.6139 11.8303 91.8504 11.8169C92.0576 11.8169 92.2715 11.8103 92.472 11.7702C92.5656 11.7568 92.7127 11.6766 92.7193 11.6097C92.7327 11.5095 92.6659 11.3825 92.6057 11.2889C92.5589 11.2154 92.4587 11.1753 92.3851 11.1151C91.9106 10.7676 91.436 10.42 90.8879 10.273C90.654 10.5002 90.4134 10.674 90.2396 10.9013C90.0124 11.1953 89.7383 11.2822 89.3841 11.2822C88.0072 11.2689 86.6303 11.2822 85.2534 11.2822C85.1465 11.2822 85.0395 11.2822 84.9125 11.2822V10.6072C85.0128 10.4868 85.0729 10.3933 85.1598 10.3198C85.4071 10.0992 85.4472 9.84519 84.9927 9.69146C84.6652 9.57784 84.311 9.51768 83.9701 9.43079C83.8832 9.40405 83.803 9.35058 83.7562 9.32385C83.7762 8.73566 83.803 8.18089 83.8097 7.63281C83.8097 7.44566 83.8498 7.29862 83.9634 7.1382C84.1305 6.89758 84.1706 6.57007 83.9968 6.35618C83.7361 6.02199 83.4421 5.67442 82.9875 5.60758C82.7803 5.80142 82.5932 5.98188 82.3994 6.15567C82.3325 6.21582 82.2389 6.26929 82.1587 6.27598C81.6641 6.28934 81.1628 6.27598 80.6549 6.27598V5.09292C80.8153 5.09292 80.9556 5.09292 81.0893 5.09292C82.1053 5.09292 83.1212 5.09292 84.1372 5.09292C84.3711 5.09292 84.6117 5.06618 84.839 5.03277C84.9259 5.0194 84.9994 4.95256 85.1064 4.89909C85.0128 4.75872 84.9526 4.62505 84.859 4.54484C84.5048 4.25075 84.1372 3.96334 83.7629 3.6893C83.5757 3.55562 83.4621 3.58904 83.3017 3.77619C83.168 3.92992 83.0343 4.09033 82.9073 4.25743C82.7402 4.47132 82.533 4.55152 82.2523 4.53815C81.8245 4.5181 81.3901 4.53816 80.9623 4.53147C80.8554 4.53147 80.7551 4.51142 80.6749 4.50474V2.96743C80.842 2.96075 80.9623 2.94738 81.0826 2.94738C81.8914 2.94738 82.6935 2.94738 83.5022 2.94738C83.6158 2.94738 83.7295 2.95406 83.8364 2.93401C84.0035 2.90059 84.0703 2.74018 83.95 2.62655C83.6225 2.31241 83.295 2.00495 82.9341 1.73091C82.7001 1.55044 82.5798 1.59723 82.3659 1.80443C82.2189 1.95148 82.0718 2.09852 81.9181 2.23888C81.8513 2.29904 81.7644 2.37925 81.6842 2.38593C81.3433 2.41267 81.0024 2.44609 80.6749 2.36588C80.5746 1.83117 81.0292 1.57049 81.2029 1.12267C80.695 0.748369 80.1402 0.561219 79.4985 0.547852V2.38593H77.9746C77.9746 2.38593 77.9746 2.31909 77.9679 2.28567C78.1216 2.0651 78.2754 1.83785 78.4358 1.59723C78.0214 1.18951 77.5268 0.975623 77.0121 0.801841C76.8651 0.755053 76.7448 0.821892 76.7314 1.01573C76.718 1.28308 76.7113 1.55712 76.6579 1.82448C76.6044 2.12526 76.5041 2.42603 76.4306 2.72681C76.3638 3.00085 76.3036 3.27489 76.2368 3.54893C76.1967 3.7294 76.1633 3.90987 76.1165 4.11707C76.2435 4.11038 76.337 4.13044 76.3705 4.09702C76.7448 3.73608 77.1124 3.36178 77.5067 2.96075H79.425V4.55152C77.8944 4.5181 76.4172 4.48468 74.9 4.45126C75.0003 4.80551 75.3345 4.94587 75.5015 5.19986C75.9962 5.07955 79.0307 5.0595 79.3983 5.15976V6.28266C79.1176 6.28266 78.8569 6.26929 78.5962 6.28266C78.0682 6.31608 77.5736 6.25592 77.1324 5.91504C77.0054 5.82147 76.8183 5.81478 76.5843 5.74126V6.46981C76.5843 7.39888 76.5843 8.32126 76.5843 9.25032C76.5843 9.48426 76.591 9.7182 76.6111 9.95214C76.6245 10.1125 76.7314 10.2128 76.8985 10.1727C77.1057 10.1259 77.3129 10.0658 77.5134 9.98555C77.7875 9.87861 77.9011 9.67809 77.8944 9.37063C77.8743 8.62203 77.881 7.87343 77.881 7.12483C77.881 7.01789 77.8944 6.91095 77.9011 6.78395C78.4091 6.7639 78.8836 6.7639 79.3582 6.78395C79.3582 6.91095 79.3715 6.98447 79.3715 7.05131C79.3381 7.99374 79.298 8.93618 79.2713 9.87193C79.2713 10.0658 79.2713 10.2596 79.3047 10.4467C79.3181 10.527 79.3916 10.6272 79.4651 10.6539C79.8862 10.8077 80.3541 10.5671 80.4878 10.1125C80.5613 9.86524 80.6081 9.60457 80.6148 9.35058C80.6281 8.60198 80.6148 7.85338 80.6148 7.10478C80.6148 6.99784 80.6348 6.89758 80.6415 6.77727H82.3392C82.5063 6.97779 82.6467 7.19167 82.64 7.4724C82.6333 7.65286 82.64 7.83333 82.64 8.0138C82.6266 8.44157 82.5197 8.58193 82.0986 8.64877C81.9382 8.6755 81.7644 8.66214 81.5973 8.66214C81.4436 8.66214 81.2965 8.66882 81.1428 8.6755C81.1227 8.69556 81.096 8.71561 81.0759 8.74234C81.3634 9.12333 81.7711 9.4241 81.8713 9.93208C81.9114 10.1326 82.0718 10.1794 82.259 10.1527C82.3659 10.1393 82.4662 10.0992 82.5665 10.0658C82.8004 9.97887 83.0343 9.8853 83.3284 9.77167V11.2488H81.1963C80.5011 11.2488 79.806 11.2488 79.1109 11.2488C78.4024 11.2488 77.6939 11.2354 76.9854 11.2488C76.2903 11.2555 75.6018 11.1018 74.8733 11.2421C74.9134 11.3357 75.0069 11.3558 75.047 11.4092C75.2943 11.7301 75.5417 12.0442 76.0229 11.8437C76.0563 11.8303 76.1031 11.8437 76.1499 11.8437C77.5669 11.8303 78.9839 11.8103 80.4009 11.7969C80.5813 11.7969 80.7685 11.8303 80.949 11.8437C80.9556 11.8771 80.969 11.9105 80.9757 11.9439C80.5145 12.3249 80.0466 12.7126 79.5854 13.1003C78.8702 13.6951 78.0682 14.1563 77.2661 14.5975C76.4908 15.0252 75.6753 15.3929 74.8265 15.6669C74.7262 15.7003 74.6326 15.7671 74.5391 15.8206C74.5457 15.854 74.5591 15.8875 74.5658 15.9209C74.7529 15.9209 74.9468 15.9677 75.1273 15.9209C75.5751 15.8206 76.0296 15.7204 76.464 15.5599C77.3329 15.2391 78.1952 14.8849 79.0507 14.5239C79.425 14.3702 79.7859 14.1697 80.187 13.9759V15.8875C79.953 15.9342 79.7191 15.9877 79.4852 16.0278C79.0708 16.1013 78.6564 16.1749 78.242 16.235C77.8409 16.2952 77.4399 16.3353 77.0389 16.4021C76.8049 16.4422 76.7715 16.5291 76.8651 16.743C77.0656 17.2176 77.3797 17.6119 77.7607 17.9595C77.9479 18.1333 78.1417 18.0932 78.3422 17.9327C78.4826 17.8191 78.6564 17.7322 78.8235 17.652C78.9571 17.5919 79.1109 17.5718 79.2445 17.5183C80.1937 17.1574 81.1495 16.8098 82.0919 16.4222C83.0277 16.0412 83.95 15.6201 84.8791 15.2191C85.0863 15.1255 85.2868 15.0186 85.494 14.9383C85.7012 14.8581 85.875 14.8982 86.0488 15.072C86.3964 15.4263 86.764 15.7605 87.145 16.0746C88.2478 16.9836 89.5044 17.6253 90.8478 18.1065C91.0149 18.1667 91.1687 18.1734 91.2689 17.9795C91.543 17.4381 91.9975 17.1307 92.5656 16.9502C92.833 16.87 93.0936 16.7497 93.3543 16.6494C93.3744 16.6294 93.3944 16.6026 93.4212 16.5826C93.4011 16.5692 93.381 16.5559 93.361 16.5492C93.3008 16.5425 93.234 16.5224 93.1738 16.5091L93.1538 16.5425ZM84.4981 14.7111C83.6359 15.0988 82.7269 15.3461 81.8112 15.5934C81.7577 15.6067 81.7042 15.5934 81.6441 15.6001C81.6173 15.5733 81.5973 15.5466 81.5706 15.5132C81.5706 14.7378 81.5706 13.9625 81.5706 13.1872C81.5906 13.1604 81.6173 13.1404 81.6374 13.1136C82.2055 12.726 82.7737 12.3316 83.3552 11.9506C83.5423 11.8303 83.7495 11.7501 84.0169 11.837C84.2775 12.7393 84.7989 13.528 85.3737 14.3635C85.0529 14.4905 84.7655 14.5908 84.4914 14.7111H84.4981Z" fill="black"/>
<path d="M37.2493 8.32161C38.9738 8.32161 40.6982 8.32161 42.4227 8.32161C42.6165 8.32161 42.8103 8.31492 43.0042 8.2815C43.0844 8.26814 43.198 8.18793 43.218 8.12109C43.2381 8.05425 43.1779 7.92725 43.1178 7.88047C42.5497 7.4527 42.0083 6.97814 41.3131 6.79099C41.0658 7.02492 40.8185 7.24549 40.5913 7.48612C40.3774 7.70669 40.1368 7.80694 39.8226 7.80694C38.7264 7.79358 37.6236 7.78021 36.5274 7.80694C36.113 7.82031 35.8524 7.6599 35.6184 7.36581C35.2642 6.92467 34.9032 6.49689 34.569 6.04907C34.4487 5.88866 34.2683 5.75498 34.2482 5.52773C34.3017 5.50767 34.3284 5.49431 34.3485 5.49431C36.1598 5.49431 37.9645 5.50099 39.7758 5.50767C39.983 5.50767 40.1835 5.48094 40.4576 5.46089C40.3974 5.2871 40.3841 5.14674 40.3105 5.05985C39.8894 4.59198 39.3882 4.22436 38.8133 3.95032C38.566 4.22436 38.3187 4.48503 38.0848 4.75239C37.9377 4.91949 37.7773 4.98633 37.5434 4.97964C36.4339 4.96628 35.3176 4.97964 34.2081 4.97964H33.8271C33.8271 4.86602 33.8071 4.77913 33.8271 4.7056C33.9608 4.19094 34.1079 3.66959 34.2482 3.15493C34.2883 2.99452 34.3685 2.88089 34.5624 2.89426C34.6426 2.89426 34.7295 2.89426 34.8097 2.89426C36.728 2.89426 38.6462 2.89426 40.5712 2.89426C40.7985 2.89426 41.019 2.8341 41.1995 2.80737C41.3131 2.53333 41.1728 2.42638 41.0324 2.33281C40.6514 2.07214 40.2637 1.82483 39.8828 1.57084C39.4349 1.27007 39.2545 1.2968 38.927 1.73126C38.5928 2.16571 38.1917 2.4197 37.5969 2.39296C36.6945 2.35286 35.7855 2.38628 34.8832 2.3796C34.7762 2.3796 34.676 2.36623 34.549 2.35955C34.5757 1.89167 34.8297 1.60426 35.1706 1.37701C35.3377 1.26338 35.458 1.11634 35.3778 0.929185C35.331 0.808875 35.1906 0.708616 35.0637 0.655144C34.7696 0.52815 34.4688 0.421207 34.1613 0.327632C33.8338 0.227373 33.4996 0.140482 33.0785 0.0268555C33.0919 0.855662 33.1119 1.61763 32.9916 2.38628C32.6441 2.38628 32.3366 2.38628 32.0358 2.38628C31.7417 2.38628 31.4543 2.38628 31.1602 2.38628C30.8661 2.38628 30.5453 2.38628 30.2445 2.38628C29.9438 2.38628 29.6296 2.39296 29.3288 2.38628C29.0214 2.3796 28.7206 2.35286 28.4131 2.33949C28.1191 2.32613 27.8316 2.30607 27.5376 2.31276C27.2501 2.31944 26.9561 2.19245 26.6285 2.31276C26.7488 2.4598 26.8491 2.56006 26.9159 2.68037C27.0496 2.94105 27.2635 2.99452 27.5376 2.98783C29.1952 2.95441 30.8461 2.92768 32.5037 2.90763C32.624 2.90763 32.7443 2.92099 32.8981 2.92768C32.8513 3.64954 32.6173 4.29788 32.4369 4.99301C30.5386 4.97964 28.627 5.02643 26.6753 4.92617C26.809 5.11332 26.9093 5.26037 27.0162 5.40073C27.1566 5.57451 27.3304 5.63467 27.5643 5.62798C28.8677 5.5812 30.1777 5.54778 31.4811 5.51436C31.7217 5.51436 31.969 5.53441 32.2965 5.54778C31.9088 6.34985 31.5546 7.08508 31.1937 7.827C30.1844 7.827 29.2152 7.84036 28.2394 7.827C27.2635 7.81363 26.2877 7.77352 25.2383 7.7401C25.3653 7.91389 25.4655 8.00746 25.5257 8.12109C25.6661 8.39513 25.8866 8.47534 26.1807 8.4486C27.5376 8.32829 28.9011 8.32829 30.2646 8.35503C30.4116 8.35503 30.5587 8.36839 30.806 8.38176C30.278 9.08357 29.8168 9.71855 29.2286 10.2599C28.6471 10.8013 28.0856 11.3695 27.4841 11.8975C26.9026 12.4122 26.281 12.8934 25.6326 13.4281C26.0203 13.4549 27.1633 12.9736 27.9921 12.4456C28.7006 11.9978 29.389 11.5366 30.1175 11.062C30.1309 11.2157 30.1577 11.3494 30.151 11.4831C30.151 12.733 30.1309 13.9762 30.1242 15.2261C30.1242 16.0148 30.1109 16.8035 30.1175 17.5989C30.1175 18.0601 30.3114 18.2071 30.7726 18.1537C31.0332 18.1269 31.2538 18.02 31.4009 17.8061C31.5546 17.5855 31.7551 17.5454 32.0024 17.5521C33.3125 17.5655 34.6158 17.5655 35.9259 17.5521C36.1932 17.5521 36.3804 17.5989 36.474 17.8863C36.6611 17.8863 36.8416 17.9064 37.0154 17.8863C37.6971 17.7794 37.9244 17.5454 37.9043 16.9639C37.8575 15.5068 37.8709 14.0564 37.8509 12.5993C37.8509 12.1916 37.9311 11.8374 38.312 11.5499C38.4324 11.6636 38.5326 11.7839 38.6529 11.8641C39.3882 12.3587 40.1301 12.8333 40.8653 13.3279C41.019 13.4348 41.1126 13.388 41.2129 13.261C41.3064 13.1407 41.3933 13.0137 41.507 12.9135C41.8879 12.5793 42.3558 12.4456 42.8504 12.3921C43.0242 12.3721 43.1846 12.352 43.345 12.225C40.7784 11.5165 38.5393 10.3 36.5943 8.42187C36.8683 8.39513 37.0555 8.36839 37.2426 8.36839L37.2493 8.32161ZM33.4929 5.94213C33.5264 5.96886 33.6066 6.00897 33.6533 6.06912C33.9875 6.54368 34.3084 7.03161 34.6359 7.50617C34.6894 7.57969 34.7361 7.65321 34.8163 7.78021H32.7176C32.9716 7.16529 33.2256 6.57042 33.4862 5.94213H33.4929ZM36.367 17.004C34.8097 17.0107 33.2523 17.004 31.6415 17.004C31.6081 16.1552 31.5746 15.3464 31.5412 14.4775C33.1855 14.4574 34.7762 14.4441 36.3871 14.4976C36.494 15.3197 36.4405 16.1284 36.3737 16.9973L36.367 17.004ZM36.4272 13.9294H31.568C31.5546 13.0739 31.5412 12.2451 31.6816 11.3895H36.2734C36.4205 12.2518 36.5141 13.0806 36.4339 13.9294H36.4272ZM36.8215 10.2065C36.7413 10.2733 36.5876 10.3335 36.5408 10.4471C36.3603 10.8281 36.0596 10.8682 35.6853 10.8615C34.6292 10.8414 33.5731 10.8281 32.5171 10.8615C31.8621 10.8882 31.2806 10.7345 30.7057 10.3869C31.0533 9.96585 31.3875 9.5715 31.715 9.17046C31.8687 8.97663 32.0425 8.78948 32.1495 8.57559C32.2497 8.35503 32.4035 8.31492 32.604 8.31492C33.3927 8.31492 34.1881 8.32161 34.9768 8.32161C35.1773 8.32161 35.2775 8.40181 35.4045 8.56223C35.839 9.11031 36.3135 9.63166 36.8148 10.2065H36.8215Z" fill="black"/>
<path d="M17.6522 11.1821C17.3648 11.0484 17.2646 11.0685 17.1042 11.3024C16.9972 11.4628 16.9036 11.6299 16.8168 11.797C16.7031 12.0042 16.5494 12.1713 16.3088 12.178C15.8142 12.1981 15.3196 12.178 14.7915 12.178C14.7915 12.0778 14.7915 12.0109 14.7915 11.9441C14.8049 10.086 14.8249 8.22782 14.8249 6.36969C14.8249 6.06223 15.0054 5.90182 15.226 5.74809C15.5468 5.52083 15.5669 5.27353 15.246 5.04627C14.8784 4.79228 14.4841 4.56503 14.0897 4.35783C13.7555 4.18405 13.6419 4.22415 13.4481 4.53161C13.3211 4.73881 13.1673 4.79228 12.9401 4.7856C12.1313 4.77223 11.3293 4.7856 10.5205 4.7856H10.066V2.35265C10.2197 2.33928 10.3467 2.32592 10.467 2.32592C12.2316 2.32592 14.0028 2.31923 15.7674 2.31255C16.1149 2.31255 16.4625 2.29918 16.8101 2.27245C16.9504 2.25908 17.0841 2.19892 17.2579 2.14545C17.0173 1.64416 16.6898 1.27654 16.3355 0.93566C15.8409 0.461101 15.6003 0.467785 15.2393 1.03592C14.8784 1.60405 14.4172 1.81125 13.7288 1.80457C10.32 1.77115 6.91118 1.78452 3.50238 1.77783C3.11471 1.77783 2.72704 1.76447 2.33937 1.74441C2.06533 1.73105 1.79798 1.68426 1.42368 1.64416C1.56404 1.83799 1.6643 1.95162 1.73114 2.07861C1.86482 2.3326 2.05865 2.41281 2.33937 2.38607C2.79388 2.33928 3.25507 2.31255 3.71626 2.31255C5.07978 2.30586 6.4433 2.31255 7.80683 2.31255C8.08087 2.31255 8.36159 2.31255 8.66237 2.31255V4.7856H8.24128C7.54615 4.7856 6.85102 4.75886 6.1559 4.79228C5.45408 4.8257 4.80574 4.71208 4.17745 4.40462C3.9903 4.31104 3.76973 4.29767 3.52911 4.23083C3.52911 4.3712 3.50906 4.45809 3.52911 4.53161C3.70289 5.2 3.76973 5.87508 3.77642 6.56353C3.78979 8.22782 3.78979 9.89212 3.79647 11.5564C3.79647 11.7569 3.79647 11.9641 3.79647 12.1914H0C0.100259 12.305 0.193834 12.3785 0.240621 12.4721C0.401036 12.8264 0.68176 12.8397 1.02932 12.8197C1.91829 12.7662 2.80725 12.7595 3.69621 12.7395C3.71626 12.7395 3.743 12.7662 3.78979 12.7929C3.78979 12.9534 3.78979 13.1338 3.78979 13.3076C3.77642 14.123 3.76973 14.9452 3.743 15.7606C3.743 16.0079 3.69621 16.2552 3.67616 16.5025C3.65611 16.83 3.616 17.1642 3.62937 17.4917C3.64274 17.8794 3.80315 18.0064 4.19751 17.9462C4.87258 17.8393 5.27362 17.5318 5.26025 16.7632C5.2402 15.6938 5.19341 14.631 5.16667 13.5616C5.15999 13.3009 5.16667 13.0402 5.16667 12.7595H13.4013C13.4013 13.7354 13.4013 14.6912 13.4013 15.647C13.4013 15.901 13.2475 16.0146 13.0337 16.0747C12.9267 16.1015 12.8131 16.1082 12.7061 16.1082C12.2182 16.0881 11.737 16.0614 11.249 16.0413C11.0953 16.0413 10.9215 15.9678 10.7411 16.1416C10.9817 16.282 11.1956 16.4156 11.4228 16.5293C11.7771 16.7097 11.9843 16.9971 12.1113 17.3581C12.1781 17.5452 12.245 17.7257 12.3252 17.9596C12.5457 17.9128 12.7462 17.8928 12.9334 17.8326C13.2141 17.739 13.4882 17.6321 13.7555 17.4984C14.4172 17.1776 14.7982 16.6763 14.7848 15.9077C14.7715 15.0053 14.7848 14.103 14.7848 13.2073C14.7848 13.0603 14.7982 12.9133 14.8049 12.7462C15.9345 12.7462 17.024 12.7462 18.1068 12.7462C18.334 12.7462 18.5613 12.6994 18.8353 12.6659C18.7885 12.4922 18.7818 12.3451 18.7217 12.2382C18.461 11.797 18.1469 11.4094 17.6656 11.1821H17.6522ZM5.28698 5.34037H8.649V8.50186H5.26025C5.26025 8.50186 5.20678 8.46176 5.18004 8.44171C5.13994 7.41238 5.07978 6.38306 5.28698 5.34037ZM8.649 12.1914C7.49936 12.2315 6.34305 12.1981 5.17336 12.2114V9.06331H8.60221C8.69579 9.35072 8.72252 11.1621 8.649 12.1914ZM13.3679 12.1914H10.0326C10.0192 11.1487 10.0125 10.1261 10.0393 9.07H13.3612V12.1914H13.3679ZM13.3812 8.49518H10.0593V5.34705H13.2342C13.5483 6.41648 13.3478 7.4458 13.3812 8.49518Z" fill="black"/>
<path d="M117.23 15.8745C116.701 15.9948 116.2 15.8211 115.699 15.7409C114.99 15.6205 114.295 15.3799 113.6 15.1861C112.197 14.8051 110.947 14.1233 109.804 13.2411C109.764 13.2076 109.764 13.1274 109.73 13.0405C109.85 13.0405 109.931 13.0272 110.011 13.0272C111.762 13.0272 113.513 13.0272 115.264 13.0272C115.846 13.0272 116.434 13.0138 117.016 13.0205C117.236 13.0205 117.377 12.9403 117.477 12.713C117.377 12.6061 117.296 12.4724 117.176 12.3855C116.768 12.0714 116.354 11.7639 115.933 11.4698C115.679 11.2894 115.559 11.3161 115.378 11.5567C115.251 11.7305 115.131 11.9177 115.024 12.1048C114.857 12.3855 114.65 12.5259 114.295 12.5192C112.711 12.4992 111.127 12.5125 109.536 12.5125C109.429 12.5125 109.322 12.4925 109.222 12.4858C109.082 11.8308 109.195 11.2225 109.376 10.6009H109.957C110.131 10.9418 110.352 11.2225 110.78 11.1557C111.12 11.1022 111.234 10.9685 111.274 10.6143C111.448 10.5675 111.481 10.4873 111.341 10.3603C111.341 10.1932 111.348 10.0261 111.341 9.859C111.314 8.88983 111.294 7.92066 111.247 6.95818C111.227 6.55046 111.281 6.18953 111.642 5.93554C111.662 5.92217 111.662 5.88875 111.689 5.80854C111.394 5.60802 111.087 5.39414 110.773 5.18694C110.452 4.97305 110.452 4.97974 110.191 5.24041C110.111 5.32062 110.011 5.45429 109.917 5.45429C109.262 5.47435 108.601 5.46098 107.879 5.46098C108.24 4.93963 108.574 4.49849 109.042 4.17098C109.202 4.05735 109.363 3.95041 109.496 3.81673C109.67 3.63627 109.603 3.48922 109.349 3.46248C109.095 3.42907 108.835 3.40901 108.581 3.36891C108.32 3.32881 108.059 3.26865 107.758 3.2085C107.585 3.94373 107.411 4.68564 107.237 5.41419C106.956 5.4944 106.756 5.41419 106.535 5.31393C106.188 5.16689 105.847 4.90621 105.426 5.07331C105.426 5.25378 105.386 5.42756 105.426 5.58129C105.62 6.26305 105.706 6.96486 105.713 7.66667C105.72 8.58237 105.7 9.49807 105.706 10.4071C105.706 10.6009 105.706 10.8014 105.767 10.9819C105.8 11.0955 105.914 11.2359 106.021 11.2626C106.275 11.3228 106.535 11.3161 106.783 11.1757C107.01 11.0421 107.003 10.8282 107.003 10.5942H107.625C107.892 11.2158 107.738 11.8508 107.772 12.5125C105.125 12.4657 102.525 12.5994 99.878 12.3855C99.9516 12.5125 99.985 12.5727 100.025 12.6261C100.226 12.9603 100.48 13.1609 100.907 13.094C101.208 13.0472 101.509 13.0339 101.816 13.0339C103.347 13.0339 104.878 13.0339 106.402 13.0339V13.1609C106.308 13.2478 106.221 13.3346 106.128 13.4148C105.352 14.0632 104.51 14.6046 103.634 15.0992C102.505 15.7342 101.342 16.3224 100.199 16.9306C100.032 17.0242 99.8714 17.1378 99.7109 17.2381C99.7978 17.3249 99.8647 17.3517 99.9181 17.3383C100.219 17.2581 100.52 17.1779 100.82 17.091C102.057 16.7234 103.26 16.2488 104.443 15.7475C105.513 15.293 106.529 14.745 107.484 14.0966C107.551 14.0498 107.651 14.0431 107.765 14.0097C107.765 14.2503 107.765 14.4575 107.765 14.6647C107.778 15.6473 107.805 16.6298 107.798 17.6124C107.798 17.8262 107.899 17.9599 108.052 17.9933C108.427 18.0735 108.794 17.9933 109.102 17.7661C109.342 17.5789 109.376 17.2982 109.316 17.0108C109.449 16.8972 109.356 16.8704 109.256 16.837C109.242 15.7609 109.222 14.6781 109.209 13.5285C109.336 13.6087 109.429 13.6555 109.496 13.729C109.703 13.9496 109.884 14.1969 110.104 14.4041C110.606 14.8719 111.107 15.3532 111.648 15.7676C112.618 16.5095 113.654 17.1244 114.857 17.4185C115.278 17.5188 115.365 17.492 115.572 17.1311C115.652 16.9907 115.752 16.8504 115.886 16.7568C116.194 16.5429 116.508 16.3357 116.882 16.2421C117.103 16.1887 117.31 16.0951 117.524 16.0149C117.544 15.9882 117.564 15.9614 117.584 15.9347C117.564 15.9213 117.537 15.908 117.517 15.9013C117.41 15.8879 117.29 15.8411 117.189 15.8612L117.23 15.8745ZM107.137 6.01574H109.984V7.76693H106.99C106.99 7.16538 106.93 6.57051 107.13 6.01574H107.137ZM107.083 10.0194C107.05 9.47133 107.016 8.92325 106.976 8.31501C108.006 8.30165 108.995 8.30165 109.984 8.32838V10.0127H107.083V10.0194Z" fill="black"/>
<path d="M57.6555 14.4371C56.9737 13.7687 56.1382 13.3476 55.2894 12.9599C55.1824 12.9131 55.0153 12.7527 54.8482 12.9198C55.1691 13.3209 55.4832 13.7085 55.804 14.1162C54.9752 14.5574 54.113 14.7378 53.2842 15.0052V11.7702H56.1048C56.1984 11.944 56.2385 12.1177 56.3455 12.2113C56.5861 12.4185 57.2277 12.2514 57.328 11.9573C57.4216 11.6766 57.4884 11.3758 57.4884 11.0817C57.4884 9.95884 57.4617 8.83594 57.4416 7.71304C57.4349 7.36548 57.475 7.07138 57.8694 6.93102C58.0833 6.8575 58.0833 6.68372 57.9429 6.49657C57.6889 6.16905 57.348 5.96854 56.9737 5.81481C56.673 5.68781 56.4992 5.78139 56.3321 6.08216C56.2786 6.17574 56.2185 6.26931 56.185 6.32278H55.3429C55.3429 5.96854 55.3562 5.65439 55.3429 5.33356C55.3295 5.05952 55.4231 4.82558 55.5701 4.60502C55.7305 4.36439 55.7105 4.25077 55.4498 4.13046C55.2426 4.0302 55.0287 3.92994 54.8081 3.9032C54.494 3.86978 54.1799 3.696 53.8724 3.81631C53.9459 4.25077 54.0529 4.65849 54.0796 5.07289C54.113 5.49398 54.0997 5.92175 54.0796 6.32278C53.2441 6.48988 52.7495 5.95517 52.1479 5.61429C52.1814 5.53408 52.1947 5.48061 52.2282 5.44051C52.5757 5.03279 52.9366 4.63175 53.2775 4.22403C53.7454 3.6559 54.2066 3.0744 54.6611 2.4929C54.875 2.21217 55.0153 2.17875 55.2292 2.45948C55.4699 2.77362 55.657 3.12787 55.8575 3.47543C56.0313 3.76952 56.1717 4.08367 56.3588 4.36439C56.5393 4.63844 57.0205 4.74538 57.2812 4.6117C57.4951 4.49807 57.6421 4.13046 57.5619 3.84973C57.4416 3.44201 57.2611 3.04766 56.9002 2.79367C56.439 2.46616 55.9511 2.16538 55.4765 1.85124C55.4565 1.83787 55.4498 1.80445 55.4298 1.75766C55.4565 1.69082 55.4966 1.60393 55.5434 1.47694C55.2693 1.26974 55.0087 1.02243 54.7079 0.848649C54.4205 0.674867 54.2066 0.320619 53.8056 0.374091C53.7721 0.601344 53.7721 0.81523 53.6986 1.00238C53.2842 2.10523 52.7094 3.12787 52.0477 4.10372C51.6132 4.74538 51.1654 5.38703 50.6708 5.98859C50.2297 6.51662 49.7217 6.99118 49.2404 7.48579C49.1936 7.53926 49.1335 7.57936 49.0132 7.67962C49.6749 7.65289 50.0692 7.2719 50.5037 6.98449C50.9515 6.6904 51.3526 6.32947 51.8137 5.97522C51.9675 6.81739 52.0544 7.58605 52.0477 8.37475C52.0343 10.5804 52.0477 12.7861 52.0477 14.9852C52.0477 15.0921 52.0477 15.199 52.0477 15.3127C51.4328 15.4998 50.8446 15.6803 50.2564 15.8607C50.3032 16.4088 50.4502 16.8767 50.6775 17.3245C50.7577 17.4783 50.8646 17.525 51.0117 17.4983C51.1253 17.4716 51.2456 17.4382 51.3526 17.378C51.9608 17.0238 52.5757 16.6762 53.1706 16.3019C54.0395 15.7471 54.9151 15.2057 55.8575 14.7713C55.9511 14.7245 56.0514 14.6911 56.1516 14.651C56.2318 14.7445 56.2987 14.8181 56.3455 14.8983C56.6395 15.4062 56.9136 15.9209 57.2144 16.4222C57.3614 16.6695 57.5151 16.9101 57.7023 17.124C57.9095 17.3579 58.3573 17.3178 58.491 17.0572C58.6113 16.8299 58.7116 16.5893 58.6514 16.3086C58.4977 15.5934 58.2103 14.9517 57.6756 14.4304L57.6555 14.4371ZM56.165 11.182H53.2976V9.34392C54.2801 9.2704 55.2426 9.3105 56.2586 9.34392C56.2385 9.96552 56.3321 10.5671 56.165 11.182ZM53.2842 6.95776C53.3778 6.93102 53.4647 6.87755 53.5516 6.87755C54.4071 6.87755 55.2693 6.87755 56.1583 6.87755C56.1984 7.51252 56.2385 8.12076 56.2853 8.76242H53.2842V6.96444V6.95776Z" fill="black"/>
<path d="M140.162 5.91509C140.042 5.84157 139.921 5.84157 139.834 5.96857C139.674 6.18914 139.467 6.38965 139.366 6.63696C139.179 7.09147 138.812 7.17836 138.404 7.17836C137.208 7.18504 136.011 7.17836 134.821 7.17836C134.795 7.1583 134.768 7.13825 134.741 7.1182C134.741 7.0781 134.728 7.03799 134.735 6.99789C134.801 6.23592 134.875 5.47396 134.928 4.7053C134.962 4.22406 134.968 3.74282 134.995 3.24152C136.86 2.74691 138.718 2.25899 140.636 1.75101C140.563 1.63738 140.536 1.53044 140.469 1.49034C139.908 1.18956 139.34 0.908834 138.778 0.614742C138.591 0.514483 138.424 0.547902 138.277 0.654845C138.09 0.788524 137.916 0.948938 137.742 1.10267C137.087 1.68417 136.359 2.14536 135.603 2.57982C135.055 2.89396 134.554 2.95412 133.999 2.64666C133.805 2.53971 133.565 2.45951 133.291 2.61324C133.324 2.98085 133.371 3.36184 133.398 3.74282C133.478 4.82561 133.465 5.90173 133.364 6.97784C133.304 7.65291 133.144 8.32131 133.084 8.99638C133.003 9.91877 132.729 10.7944 132.475 11.67C132.275 12.3584 131.981 13.0268 131.747 13.7086C131.366 14.798 130.865 15.834 130.243 16.8099C130.149 16.9503 130.029 17.0772 130.116 17.3045C130.25 17.2176 130.377 17.1575 130.477 17.0706C130.905 16.703 131.279 16.2952 131.633 15.8474C132.422 14.8515 133.037 13.7687 133.471 12.579C133.685 11.9841 133.926 11.3959 134.019 10.7609C134.106 10.2062 134.293 9.66478 134.407 9.11001C134.454 8.89612 134.481 8.67556 134.514 8.45499C134.541 8.23442 134.567 8.01385 134.594 7.79328C134.621 7.77323 134.641 7.74649 134.668 7.72644C135.095 7.72644 135.53 7.71975 135.958 7.72644C136.379 7.72644 136.807 7.71307 137.241 7.73981C137.241 8.10074 137.241 8.4082 137.241 8.70897C137.248 9.41747 137.268 10.1193 137.274 10.8278C137.281 11.436 137.301 12.0443 137.288 12.6525C137.261 13.6885 137.208 14.7178 137.167 15.7538C137.147 16.2484 137.141 16.7497 137.127 17.2443C137.127 17.3981 137.114 17.5518 137.127 17.6989C137.154 17.9863 137.214 18.0531 137.488 18.0264C137.722 18.0063 137.963 17.9328 138.183 17.8526C138.504 17.7256 138.698 17.485 138.678 17.1174C138.678 17.1174 138.732 17.104 138.752 17.0973C138.772 17.0906 138.792 17.0773 138.798 17.0706C138.818 17.0438 138.805 17.0104 138.745 16.9503C138.745 16.7698 138.752 16.5893 138.745 16.4089C138.718 14.0695 138.678 11.7301 138.658 9.39074C138.658 8.84265 138.705 8.29457 138.732 7.72644C138.912 7.72644 139.052 7.72644 139.186 7.72644C139.908 7.72644 140.63 7.72644 141.352 7.71307C141.592 7.71307 141.833 7.67965 141.993 7.4524C141.465 6.81742 140.83 6.35623 140.155 5.93515L140.162 5.91509Z" fill="black"/>
<path d="M66.1911 12.1917C66.0039 12.0179 65.79 11.9711 65.5761 12.0447C65.4224 12.2652 65.282 12.4724 65.1484 12.6596C63.8316 12.7331 61.1246 12.6997 60.8172 12.5994V10.6009H64.2327C64.3196 10.8349 64.5067 10.9418 64.7674 10.9485C65.3957 10.9752 65.643 10.6344 65.6363 10.1598C65.6229 9.31763 65.6363 8.46877 65.6229 7.62659C65.6229 7.31913 65.663 7.06514 65.917 6.84458C66.1042 6.68416 66.0975 6.53043 65.897 6.35665C65.7365 6.21629 65.5494 6.09598 65.3622 5.98903C64.9412 5.7551 64.8275 5.76846 64.5 6.10934C64.3329 6.28313 64.1658 6.36333 63.9185 6.35665C62.9427 6.34328 61.9735 6.35665 60.9976 6.35665C60.8372 6.35665 60.7169 6.30318 60.5832 6.22297C60.2691 6.04919 59.9349 5.89546 59.5873 5.78852C59.2866 5.69494 59.1395 5.86872 59.2264 6.17618C59.4202 6.83789 59.4938 7.51965 59.5004 8.19473C59.5339 10.2734 59.5138 12.3521 59.5071 14.4308C59.5071 14.8185 59.5004 15.2062 59.4938 15.5938C59.4804 16.1887 59.4537 16.7836 59.4603 17.3784C59.4603 17.8463 59.8346 18.0936 60.2825 17.9666C60.6434 17.8664 60.8706 17.6458 60.8907 17.2581H65.2553C65.2754 17.3116 65.282 17.3517 65.3021 17.3918C65.5828 17.9265 66.044 17.9934 66.4584 17.5522C66.7124 17.2782 66.7458 16.9239 66.7391 16.563C66.7124 15.7609 66.6857 14.9589 66.6723 14.1501C66.6723 13.8493 66.6857 13.5419 66.9463 13.3213C67.1001 13.1876 67.08 13.0205 66.9463 12.8868C66.7057 12.6529 66.4517 12.4257 66.1977 12.1984L66.1911 12.1917ZM60.8506 6.89805H64.2795C64.2995 7.43944 64.3396 7.96079 64.3396 8.48214C64.3396 8.99012 64.3196 9.49809 64.3062 10.0261H60.7971C60.7704 8.97675 60.7503 7.94742 60.8506 6.89805ZM65.2687 16.6298C64.9679 16.7167 61.4722 16.7435 60.864 16.6633C60.864 15.5069 60.7102 14.384 60.8105 13.221H65.1684C65.3756 14.3506 65.262 15.4936 65.2687 16.6298Z" fill="black"/>
<path d="M131.533 10.5739C131.64 10.1996 131.673 9.79855 131.673 9.4042C131.673 9.00984 131.58 8.60881 131.566 8.21446C131.546 7.67306 131.6 7.13166 131.553 6.59695C131.52 6.19591 131.714 5.94861 131.988 5.73472C132.115 5.64115 132.228 5.58099 132.235 5.39384C132.235 5.18664 132.101 5.09306 131.968 5.00617C131.62 4.7856 131.272 4.57172 130.911 4.38457C130.764 4.31104 130.584 4.29768 130.45 4.27094C130.21 4.67198 129.976 4.90591 129.501 4.87249C128.826 4.82571 128.138 4.85913 127.456 4.87249C127.182 4.87249 126.948 4.79897 126.714 4.67198C126.467 4.53161 126.219 4.39125 125.965 4.26426C125.878 4.21747 125.765 4.22415 125.631 4.2041C125.665 4.46477 125.691 4.65192 125.711 4.83907C125.745 5.10643 125.772 5.38047 125.798 5.64783C125.845 6.10902 125.925 6.57021 125.939 7.0314C125.965 7.76663 125.959 8.50187 125.939 9.2371C125.925 9.79186 125.912 10.3466 125.852 10.8947C125.772 11.6366 125.624 12.3719 125.544 13.1138C125.464 13.8891 125.27 14.631 125.05 15.3663C124.809 16.175 124.542 16.9771 124.141 17.7257C124.08 17.8326 124.067 17.9663 124.034 18.0933C124.187 18.0866 124.301 18.0532 124.368 17.973C124.702 17.572 125.05 17.1843 125.337 16.7498C125.758 16.1149 126.012 15.3997 126.253 14.6778C126.567 13.7287 126.874 12.7796 126.955 11.777C126.981 11.4562 127.035 11.1353 127.082 10.8078C127.142 10.7945 127.195 10.7744 127.249 10.7744C128.138 10.7744 129.027 10.761 129.916 10.761C129.982 10.761 130.063 10.8145 130.116 10.8613C130.557 11.3158 131.339 11.1821 131.513 10.5873L131.533 10.5739ZM130.069 10.1795H127.182C127.255 8.57539 127.329 7.00467 127.409 5.40052H130.029C130.076 5.65451 130.163 5.88845 130.163 6.12907C130.149 7.43244 130.116 8.72912 130.089 10.0325C130.089 10.0726 130.083 10.1127 130.069 10.1862V10.1795Z" fill="black"/>
<path d="M100.119 2.34584C100.226 2.50626 100.326 2.65999 100.426 2.81372C100.533 2.97413 100.673 3.06102 100.874 3.04766C101.175 3.02092 101.482 2.99418 101.79 2.9875C102.792 2.97413 103.795 2.97413 104.791 2.96745C104.884 2.96745 104.971 2.9875 105.085 3.00087C105.085 3.17465 105.085 3.32838 105.085 3.47543C105.085 3.696 105.085 3.91657 105.112 4.13714C105.132 4.35102 105.232 4.56491 105.452 4.59833C106.081 4.70527 106.629 4.34434 106.549 3.67595C106.522 3.44869 106.549 3.21475 106.549 2.98082H110.472C110.472 3.24149 110.472 3.47543 110.472 3.70936C110.479 3.92993 110.499 4.1505 110.519 4.37107C110.532 4.53817 110.632 4.6518 110.8 4.6919C111.214 4.79216 111.775 4.47802 111.869 4.05025C111.943 3.71605 111.943 3.36848 111.989 2.96745H112.404C113.239 2.96745 114.075 2.96745 114.904 2.96745C115.418 2.96745 115.933 2.96745 116.447 2.96745C116.661 2.96745 116.862 2.9474 116.962 2.68672C116.615 2.25895 116.193 1.91807 115.726 1.63066C115.478 1.47693 115.325 1.4903 115.097 1.6975C114.91 1.8646 114.75 2.05843 114.556 2.21885C114.449 2.31242 114.309 2.42605 114.182 2.43273C113.453 2.45279 112.718 2.43942 111.936 2.43942C111.936 2.16538 111.936 1.93812 111.936 1.70419C111.936 1.65072 111.929 1.58388 111.956 1.54377C112.036 1.43015 112.136 1.33657 112.217 1.22963C112.377 1.00237 112.283 0.72165 112.009 0.641443C111.762 0.567919 111.515 0.481028 111.267 0.460977C110.947 0.434241 110.619 0.293878 110.258 0.427557C110.592 1.08927 110.532 1.76434 110.505 2.43273H106.448C106.448 2.27232 106.448 2.13864 106.448 1.99828C106.448 1.69082 106.468 1.40341 106.749 1.19621C106.903 1.08258 106.883 0.9088 106.836 0.755069C106.121 0.367402 105.439 0.233723 104.817 0.374086C105.218 1.02911 105.071 1.73761 105.091 2.49289C103.421 2.4461 101.803 2.406 100.132 2.35921L100.119 2.34584Z" fill="black"/>
<path d="M67.7885 3.60248C67.5546 3.42201 67.2872 3.27496 67.0599 3.0945C66.5587 2.70015 66.5921 2.88061 66.2311 3.15465C66.0707 3.27496 65.917 3.36854 65.7031 3.36854C64.9812 3.36185 64.2594 3.36854 63.5308 3.36854C63.4774 3.36854 63.4306 3.3418 63.3704 3.32175C63.3704 3.06108 63.4038 2.80709 63.3637 2.56647C63.2969 2.20554 63.4974 1.99833 63.738 1.8045C63.8116 1.74434 63.8984 1.70424 63.972 1.64409C64.1859 1.47699 64.1725 1.27647 63.9386 1.13611C63.8182 1.06927 63.6979 1.00243 63.5709 0.969009C63.0563 0.821963 62.5483 0.654865 62.0069 0.614761C61.6994 0.59471 61.6192 0.628129 61.7128 0.868751C61.9668 1.57056 61.9401 2.29911 61.9334 3.02766C61.9334 3.1346 61.9066 3.23486 61.8933 3.36186C61.1246 3.36186 60.3894 3.36186 59.6542 3.36186C59.4937 3.36186 59.4403 3.2616 59.3667 3.16134C59.2331 2.97419 59.0927 2.78704 58.959 2.59989C58.9122 2.56647 58.8721 2.52636 58.8253 2.49294C58.812 2.53305 58.7986 2.56647 58.7852 2.60657C58.7786 2.81377 58.8053 3.02766 58.7518 3.22149C58.6115 3.74284 58.3508 4.19735 57.9431 4.56496C57.8027 4.69196 57.669 4.84569 57.5755 5.01278C57.3482 5.4205 57.6824 5.91511 58.0634 5.87501C58.4978 5.82822 58.8655 5.68118 59.1395 5.34698C59.4202 5.0061 59.5472 4.60506 59.5873 4.17061C59.594 4.07703 59.6074 3.99014 59.6207 3.90994C60.4562 3.82973 65.4625 3.86315 65.7566 3.95004C65.7232 4.45133 65.4291 4.91921 65.4625 5.50739C65.7967 5.28683 66.0707 5.10636 66.3514 4.91921C66.6723 4.71201 66.9864 4.51817 67.3941 4.51817C67.6281 4.51817 67.862 4.41123 68.0893 4.35776C68.1895 4.0102 68.0224 3.78294 67.7885 3.59579V3.60248Z" fill="black"/>
<path d="M88.4349 9.1972C88.6555 9.31083 88.8894 9.41109 89.0632 9.57818C89.2503 9.75865 89.3773 10.006 89.5511 10.2533C90.2596 10.2934 90.8077 9.93243 90.9882 9.26404C91.0751 8.93653 91.1285 8.58896 91.1285 8.24808C91.1285 7.17197 91.0817 6.08918 91.075 5.01306C91.0684 4.11073 91.075 3.21509 91.075 2.31276C91.075 2.07882 91.1619 1.89835 91.3558 1.77136C91.4026 1.74462 91.4427 1.70452 91.4828 1.66442C91.6566 1.47727 91.6231 1.31017 91.3892 1.21659C90.8344 0.996025 90.273 0.768771 89.6313 0.735352C89.6246 0.996025 89.5912 1.26338 89.6113 1.51737C89.6246 1.79141 89.7115 2.05877 89.7115 2.32613C89.7182 4.09737 89.7182 5.86861 89.7115 7.63985C89.7115 7.88047 89.638 8.12777 89.6113 8.36839C89.5779 8.62238 89.4108 8.68922 89.1902 8.69591C88.8293 8.69591 88.4683 8.70259 88.1074 8.71596C88.0205 8.71596 87.9403 8.74938 87.8267 8.76943C87.9938 9.0301 88.2344 9.08357 88.4483 9.19052L88.4349 9.1972Z" fill="black"/>
<path d="M86.283 5.72792C86.2429 6.403 86.2429 7.08476 86.2162 7.75983C86.2095 7.96704 86.2429 8.18092 86.4501 8.24776C86.9313 8.40149 87.7267 8.12077 87.6933 7.40559C87.6331 5.88165 87.6398 4.3644 87.6131 2.84047C87.6131 2.53969 87.6799 2.27902 87.8604 2.03839C88.0609 1.77104 88.0208 1.61731 87.7267 1.45689C87.2789 1.21627 86.7977 1.04917 86.2095 0.935547C86.2429 1.16948 86.283 1.35663 86.2964 1.5371C86.3833 2.93404 86.3498 4.33098 86.2763 5.72792H86.283Z" fill="black"/>
<path d="M126.012 2.41964C126.547 2.35949 127.088 2.32607 127.629 2.31939C128.946 2.3127 130.263 2.33275 131.586 2.33275C131.854 2.33275 132.128 2.29265 132.442 2.26591C132.382 2.13224 132.368 2.04534 132.315 1.99856C132.195 1.88493 132.061 1.79136 131.927 1.6911C131.626 1.45716 131.339 1.20985 131.032 0.982601C130.731 0.762031 130.51 0.815503 130.296 1.11628C130.203 1.24996 130.109 1.38364 130.016 1.51731C129.889 1.6911 129.728 1.79804 129.494 1.79136C128.178 1.76462 126.867 1.83814 125.557 1.70446C125.37 1.68441 125.176 1.70446 124.882 1.70446C125.063 1.8983 125.176 2.00524 125.277 2.13224C125.471 2.37286 125.698 2.44638 126.005 2.41296L126.012 2.41964Z" fill="black"/>
<path d="M100.981 11.1824C101.268 11.4497 101.429 11.403 101.676 11.0754C101.816 10.8883 101.943 10.6878 102.117 10.5407C102.545 10.1798 102.999 9.85897 103.44 9.51141C103.815 9.21732 104.209 8.94328 104.53 8.48877C102.973 8.97001 101.489 9.4312 99.9648 9.90576C100.012 10.0328 100.025 10.1397 100.085 10.2065C100.373 10.5407 100.653 10.8816 100.974 11.1757L100.981 11.1824Z" fill="black"/>
<path d="M115.217 9.04324C114.335 8.67562 113.419 8.37485 112.443 8.36816C112.417 8.3949 112.39 8.42164 112.363 8.44169C112.383 8.47511 112.397 8.52189 112.423 8.54195C113.346 9.1435 114.188 9.84531 114.937 10.6407C114.983 10.6942 115.037 10.741 115.09 10.7811C115.364 10.9949 115.852 10.9615 116.113 10.7276C116.34 10.5271 116.42 10.1327 116.173 9.75842C115.932 9.39749 115.578 9.17692 115.217 9.02987V9.04324Z" fill="black"/>
<path d="M116.354 5.46096C115.973 5.04656 115.512 4.7391 115.071 4.43164C114.168 5.35402 113.279 6.25635 112.357 7.19879C112.504 7.18542 112.598 7.1921 112.684 7.15868C113.146 6.9849 113.607 6.79107 114.075 6.63065C114.716 6.41677 115.365 6.22962 116.006 6.0291C116.093 6.00236 116.18 5.96226 116.267 5.91547C116.494 5.78848 116.534 5.64811 116.361 5.46096H116.354Z" fill="black"/>
<path d="M103.193 5.45409C102.424 5.19342 101.656 4.92606 100.84 4.85254C100.707 4.83917 100.573 4.71886 100.393 4.85254C100.54 4.95279 100.673 5.033 100.794 5.13326C101.509 5.70139 102.224 6.26953 102.946 6.83098C103.193 7.02481 103.434 7.23201 103.748 7.3189C104.042 7.40579 104.363 7.29885 104.416 7.05823C104.476 6.79756 104.51 6.4901 104.309 6.26953C104.002 5.92196 103.648 5.60113 103.193 5.4474V5.45409Z" fill="black"/>
</g>
<defs>
<clipPath id="clip0_2312_21941">
<rect width="142" height="18.1803" fill="white"/>
</clipPath>
</defs>
</svg>
